<svg xmlns="http://www.w3.org/2000/svg" version="1.1" xmlns:xlink="http://www.w3.org/1999/xlink" xmlns:svgjs="http://svgjs.dev/svgjs" width="1500" height="1755" viewBox="0 0 1500 1755"><g transform="matrix(1,0,0,1,0.9753631990013218,0.7105263157894797)"><svg viewBox="0 0 211 247" data-background-color="#1ebbd7" preserveAspectRatio="xMidYMid meet" height="1755" width="1500" xmlns="http://www.w3.org/2000/svg" xmlns:xlink="http://www.w3.org/1999/xlink"><g id="tight-bounds" transform="matrix(1,0,0,1,-0.13720108999285685,-0.09999999999999432)"><svg viewBox="0 0 211.27440217998574 247.2" height="247.2" width="211.27440217998574"><g><svg viewBox="0 0 395.52 462.7751539758567" height="247.2" width="211.27440217998574"><g transform="matrix(1,0,0,1,0,271.9167853947504)"><svg viewBox="0 0 395.52 190.85836858110633" height="190.85836858110633" width="395.52"><g id="textblocktransform"><svg viewBox="0 0 395.52 190.85836858110633" height="190.85836858110633" width="395.52" id="textblock"><g><svg viewBox="0 0 395.52 116.42617375231053" height="116.42617375231053" width="395.52"><g transform="matrix(1,0,0,1,0,0)"><svg width="395.52" viewBox="-7.7 -43.75 216.38 63.7" height="116.42617375231053" data-palette-color="#ffffff"><path d="M-4.55 19.95Q-5.25 19.95-5.73 19.78-6.2 19.6-6.75 19.05L-6.75 19.05Q-7.7 18.1-7.7 17.5L-7.7 17.5Q-7.7 17.25-7.3 17.25L-7.3 17.25Q-6.75 17.25-6.1 17.4L-6.1 17.4Q-4.1 17.75-3.1 17.75L-3.1 17.75Q-0.95 17.75 0.43 16.55 1.8 15.35 2.68 12.78 3.55 10.2 4.2 5.75L4.2 5.75 8.1-20.35 5.45-20.35Q4.05-20.35 3.35-20.03 2.65-19.7 2.55-19.7L2.55-19.7Q2.25-19.7 2.25-20.1L2.25-20.1Q2.25-20.55 2.55-21L2.55-21Q3.15-22 4.15-22.65 5.15-23.3 6.45-23.3L6.45-23.3 8.55-23.3 8.6-23.85Q9.6-29.1 10.88-32.83 12.15-36.55 14.3-39.25L14.3-39.25Q16.1-41.5 17.75-42.25 19.4-43 21.45-43.35L21.45-43.35Q22.55-43.55 22.95-43.65 23.35-43.75 23.5-43.75L23.5-43.75Q23.75-43.75 23.75-43.5L23.75-43.5Q23.75-42.9 22.75-41.95L22.75-41.95Q22.25-41.4 21.83-41.25 21.4-41.1 20.65-41.1L20.65-41.1Q19.2-41.05 18.1-40.43 17-39.8 16.05-38.5L16.05-38.5Q14.6-36.4 13.75-33.02 12.9-29.65 12.1-24.85L12.1-24.85 11.85-23.3 14.55-23.3Q15.9-23.3 16.63-23.63 17.35-23.95 17.5-23.95L17.5-23.95Q17.8-23.95 17.8-23.55L17.8-23.55Q17.8-23.25 17.5-22.65L17.5-22.65Q16.1-20.35 13.6-20.35L13.6-20.35 11.45-20.35 8.05 2.75Q5.45 19.95-4.55 19.95L-4.55 19.95ZM39.35 0.5Q37 0.5 36.45-2.9L36.45-2.9Q36-5.65 36-12.75L36-12.75 34.75-11.8 28.65-11.8Q27.5-8.85 25.97-6.5 24.45-4.15 22.75-3L22.75-3 22.75-2.9Q23.4-2.6 24-2.6L24-2.6Q24.75-2.6 25.42-2.85 26.1-3.1 26.25-3.1L26.25-3.1Q26.6-3.1 26.6-2.85L26.6-2.85Q26.6-2.5 25.9-1.65L25.9-1.65Q25.1-0.85 24.2-0.43 23.3 0 22.5 0L22.5 0Q21.85 0 20.65-0.4L20.65-0.4Q19.45-0.8 18.85-0.8L18.85-0.8Q18.1-0.8 17.32-0.4 16.55 0 16.3 0L16.3 0Q16.05 0 16.05-0.25L16.05-0.25Q16.05-0.75 16.45-1.43 16.85-2.1 17.4-2.35L17.4-2.35Q17.7-2.5 17.97-2.55 18.25-2.6 18.65-2.75L18.65-2.75Q20.6-3.5 22.07-5.48 23.55-7.45 24.6-9.93 25.65-12.4 27-16.25L27-16.25Q28.55-20.6 29.67-23.33 30.8-26.05 32.35-28.38 33.9-30.7 35.9-32L35.9-32 35.9-32.05Q35.2-32.15 34.85-32.25L34.85-32.25Q34.65-32.3 33.62-32.45 32.6-32.6 31-32.6L31-32.6Q28.3-32.6 26.47-31.6 24.65-30.6 23.05-28.35L23.05-28.35Q22.55-27.55 22.25-27.55L22.25-27.55Q21.95-27.55 21.95-27.95L21.95-27.95 22-28.45Q22.75-31.5 25.42-33.35 28.1-35.2 31.65-35.2L31.65-35.2Q33.1-35.2 36-34.7L36-34.7Q38.7-34.2 39.85-34.2L39.85-34.2Q41.15-34.2 42.6-34.7L42.6-34.7 42.6-34.65Q41.25-32.4 40.5-27.63 39.75-22.85 39.75-15.8L39.75-15.8Q39.75-8.55 40.05-6L40.05-6Q40.15-4.55 40.47-3.83 40.8-3.1 41.6-3.1L41.6-3.1Q42.1-3.1 42.57-3.35 43.05-3.6 43.85-4.1L43.85-4.1Q44.8-4.75 45.05-4.75L45.05-4.75Q45.35-4.75 45.35-4.55L45.35-4.55Q45.35-4.15 45.05-3.6L45.05-3.6Q44.1-1.9 42.47-0.7 40.85 0.5 39.35 0.5L39.35 0.5ZM29.55-14.8L36.05-14.8Q36.15-19.4 36.7-23.93 37.25-28.45 38.1-31.3L38.1-31.3 38.05-31.3Q36.1-30.4 34.27-26.95 32.45-23.5 30.1-16.5L30.1-16.5 29.55-14.8ZM48 0Q47.7 0 47.7-0.35L47.7-0.35Q47.7-0.95 48.27-1.85 48.85-2.75 49.65-3.05L49.65-3.05 51.05-3.65Q51.75-4 52.02-4.93 52.3-5.85 52.6-8.1L52.6-8.1 55.95-31.8Q54.95-31.8 54.05-31.75L54.05-31.75Q53-31.65 52.15-31.45 51.3-31.25 51.1-31.25L51.1-31.25Q50.8-31.25 50.8-31.55L50.8-31.55Q50.8-31.95 51.25-32.6L51.25-32.6Q51.85-33.55 52.65-34.02 53.45-34.5 54.6-34.55L54.6-34.55 61.65-34.7Q63-34.75 63.67-34.95 64.34-35.15 64.55-35.15L64.55-35.15Q64.9-35.15 64.9-34.85L64.9-34.85Q64.9-34.45 64.5-33.85L64.5-33.85Q63.95-32.9 63.55-32.55 63.15-32.2 62.15-32.1L62.15-32.1 59.7-31.95 55.9-5.35Q55.6-4 54.95-3.35L54.95-3.35 54.95-3.3Q55.45-3.2 56.27-3.03 57.1-2.85 57.75-2.85L57.75-2.85Q58.55-2.85 59.12-3.15 59.7-3.45 59.8-3.45L59.8-3.45Q60.05-3.45 60.05-3.15L60.05-3.15Q60.05-2.65 59.45-2L59.45-2Q57.65 0 55.95 0L55.95 0Q55.35 0 54.1-0.35L54.1-0.35Q52.2-0.8 51.5-0.8L51.5-0.8Q50.55-0.8 49.37-0.4 48.2 0 48 0L48 0ZM66.24 0.5Q65.79 0.5 65.79 0.2L65.79 0.2Q65.79 0 66.02-0.68 66.24-1.35 66.64-3L66.64-3Q67.64-7.15 69.04-16.85L69.04-16.85Q69.34-18.75 69.34-19.5L69.34-19.5Q69.34-20.15 69.04-20.15L69.04-20.15Q68.19-20.15 66.49-17.15L66.49-17.15Q66.24-16.7 66.04-16.38 65.84-16.05 65.72-15.9 65.59-15.75 65.44-15.75L65.44-15.75Q65.04-15.75 65.04-16.25L65.04-16.25Q65.04-17.25 66.14-19.1 67.24-20.95 68.74-22.38 70.24-23.8 71.44-23.8L71.44-23.8Q72.24-23.8 72.59-23.1 72.94-22.4 72.94-21.35L72.94-21.35Q72.94-19.7 72.14-14.9L72.14-14.9 72.19-14.9Q74.49-18.95 77.24-21.38 79.99-23.8 81.99-23.8L81.99-23.8Q84.09-23.8 84.09-20.85L84.09-20.85Q84.09-19.75 83.64-17.15L83.64-17.15 82.49-11.15Q81.24-4.8 81.24-3.95L81.24-3.95Q81.24-3.6 81.42-3.33 81.59-3.05 81.99-3.05L81.99-3.05Q83.34-3.05 85.09-7.15L85.09-7.15Q85.24-7.7 85.59-7.7L85.59-7.7Q85.89-7.7 85.89-7.1L85.89-7.1Q85.89-6.65 85.84-6.3L85.84-6.3Q85.49-4.5 84.39-2.93 83.29-1.35 81.94-0.43 80.59 0.5 79.49 0.5L79.49 0.5Q78.44 0.5 78.07-0.38 77.69-1.25 77.69-2.3L77.69-2.3Q77.69-4.55 78.94-10.4L78.94-10.4Q80.14-16.1 80.24-18.3L80.24-18.3Q80.29-19.2 80.12-19.58 79.94-19.95 79.29-19.95L79.29-19.95Q77.74-19.95 75.97-17.9 74.19-15.85 72.79-12.88 71.39-9.9 70.94-7.45L70.94-7.45 70.14-3.1Q69.84-1.8 68.54-0.65 67.24 0.5 66.24 0.5L66.24 0.5ZM91.89 0.5Q89.34 0.5 89.34-4.35L89.34-4.35Q89.34-9 91.37-13.53 93.39-18.05 96.84-20.93 100.29-23.8 104.29-23.8L104.29-23.8Q106.34-23.8 107.84-23.15L107.84-23.15Q107.19-20.6 106.94-19.4L106.94-19.4 105.89-14Q104.49-7.6 104.19-5.15L104.19-5.15Q104.14-4.8 104.14-4.3L104.14-4.3Q104.14-3.2 104.79-3.2L104.79-3.2Q105.59-3.2 106.29-4.23 106.99-5.25 107.89-7.15L107.89-7.15Q107.94-7.2 108.07-7.45 108.19-7.7 108.39-7.7L108.39-7.7Q108.69-7.7 108.69-7.1L108.69-7.1 108.59-6.3Q108.24-4.65 107.17-3.05 106.09-1.45 104.77-0.48 103.44 0.5 102.39 0.5L102.39 0.5Q100.64 0.5 100.64-2.35L100.64-2.35Q100.64-3.45 100.89-4.6L100.89-4.6 101.74-8.95 101.69-8.95Q99.29-4.75 96.57-2.13 93.84 0.5 91.89 0.5L91.89 0.5ZM94.24-3.6Q95.64-3.6 97.47-5.78 99.29-7.95 100.87-11.1 102.44-14.25 103.04-16.75L103.04-16.75 103.84-19.95Q102.34-20.95 100.69-20.95L100.69-20.95Q98.54-20.95 96.77-18.48 94.99-16 93.99-12.48 92.99-8.95 92.99-6.1L92.99-6.1Q92.99-4.85 93.27-4.23 93.54-3.6 94.24-3.6L94.24-3.6ZM113.29 0.5Q112.84 0.5 112.84 0.2L112.84 0.2Q112.84 0 113.06-0.68 113.29-1.35 113.69-3L113.69-3Q114.69-7.15 116.09-16.85L116.09-16.85Q116.39-18.75 116.39-19.5L116.39-19.5Q116.39-20.15 116.09-20.15L116.09-20.15Q115.24-20.15 113.54-17.15L113.54-17.15Q113.29-16.7 113.09-16.38 112.89-16.05 112.76-15.9 112.64-15.75 112.49-15.75L112.49-15.75Q112.09-15.75 112.09-16.25L112.09-16.25Q112.09-17.25 113.19-19.1 114.29-20.95 115.79-22.38 117.29-23.8 118.49-23.8L118.49-23.8Q119.29-23.8 119.64-23.1 119.99-22.4 119.99-21.35L119.99-21.35Q119.99-19.7 119.19-14.9L119.19-14.9 119.24-14.9Q121.54-18.95 124.29-21.38 127.04-23.8 129.04-23.8L129.04-23.8Q131.14-23.8 131.14-20.85L131.14-20.85Q131.14-19.75 130.69-17.15L130.69-17.15 129.54-11.15Q128.29-4.8 128.29-3.95L128.29-3.95Q128.29-3.6 128.46-3.33 128.64-3.05 129.04-3.05L129.04-3.05Q130.39-3.05 132.14-7.15L132.14-7.15Q132.29-7.7 132.64-7.7L132.64-7.7Q132.94-7.7 132.94-7.1L132.94-7.1Q132.94-6.65 132.89-6.3L132.89-6.3Q132.54-4.5 131.44-2.93 130.34-1.35 128.99-0.43 127.64 0.5 126.54 0.5L126.54 0.5Q125.49 0.5 125.11-0.38 124.74-1.25 124.74-2.3L124.74-2.3Q124.74-4.55 125.99-10.4L125.99-10.4Q127.19-16.1 127.29-18.3L127.29-18.3Q127.34-19.2 127.16-19.58 126.99-19.95 126.34-19.95L126.34-19.95Q124.79-19.95 123.01-17.9 121.24-15.85 119.84-12.88 118.44-9.9 117.99-7.45L117.99-7.45 117.19-3.1Q116.89-1.8 115.59-0.65 114.29 0.5 113.29 0.5L113.29 0.5ZM140.39 0.5Q138.24 0.5 137.19-1.43 136.14-3.35 136.14-6L136.14-6Q136.14-9.8 137.96-14 139.79-18.2 142.69-21 145.59-23.8 148.69-23.8L148.69-23.8Q150.04-23.8 150.81-23.28 151.59-22.75 151.59-21.9L151.59-21.9Q151.59-21.1 150.99-20.05L150.99-20.05Q150.64-19.45 150.34-19.45L150.34-19.45Q150.14-19.45 149.99-19.7L149.99-19.7Q148.89-21.15 147.24-21.15L147.24-21.15Q145.24-21.15 143.51-19.48 141.79-17.8 140.79-15 139.79-12.2 139.79-8.95L139.79-8.95Q139.79-3.35 142.89-3.35L142.89-3.35Q144.49-3.35 145.64-4.55 146.79-5.75 147.79-7.5L147.79-7.5Q147.89-7.65 148.04-7.9 148.19-8.15 148.31-8.25 148.44-8.35 148.64-8.35L148.64-8.35Q148.79-8.35 148.89-8.18 148.99-8 148.99-7.75L148.99-7.75Q148.99-6.3 147.64-4.33 146.29-2.35 144.26-0.93 142.24 0.5 140.39 0.5L140.39 0.5ZM160.18-26.65Q159.68-26.65 159.73-27.15L159.73-27.15 160.33-30.65Q160.58-32.1 161.41-32.88 162.23-33.65 163.48-33.65L163.48-33.65 163.68-33.65Q163.98-33.65 164.06-33.55 164.13-33.45 164.08-33.15L164.08-33.15 163.53-29.7Q163.33-28.3 162.48-27.48 161.63-26.65 160.38-26.65L160.38-26.65 160.18-26.65ZM157.23 0.5Q155.63 0.5 155.63-1.8L155.63-1.8Q155.63-2.95 155.93-4.45L155.93-4.45 158.33-17.8Q158.53-19.1 158.53-19.4L158.53-19.4Q158.53-20.15 158.08-20.15L158.08-20.15Q157.48-20.15 156.63-19.2 155.78-18.25 154.78-16.2L154.78-16.2Q154.58-15.6 154.28-15.6L154.28-15.6Q153.98-15.6 153.98-16.1L153.98-16.1Q153.98-17.3 155.06-19.18 156.13-21.05 157.71-22.43 159.28-23.8 160.63-23.8L160.63-23.8Q162.18-23.8 162.18-21.6L162.18-21.6Q162.18-20.55 161.88-18.85L161.88-18.85 159.28-4.4 159.18-3.75Q159.18-3.2 159.63-3.2L159.63-3.2Q160.23-3.2 161.08-4.17 161.93-5.15 162.93-7.15L162.93-7.15Q163.18-7.7 163.43-7.7L163.43-7.7Q163.73-7.7 163.73-7.05L163.73-7.05Q163.73-5.9 162.66-4.08 161.58-2.25 160.03-0.88 158.48 0.5 157.23 0.5L157.23 0.5ZM169.83 0.5Q167.28 0.5 167.28-4.35L167.28-4.35Q167.28-9 169.31-13.53 171.33-18.05 174.78-20.93 178.23-23.8 182.23-23.8L182.23-23.8Q184.28-23.8 185.78-23.15L185.78-23.15Q185.13-20.6 184.88-19.4L184.88-19.4 183.83-14Q182.43-7.6 182.13-5.15L182.13-5.15Q182.08-4.8 182.08-4.3L182.08-4.3Q182.08-3.2 182.73-3.2L182.73-3.2Q183.53-3.2 184.23-4.23 184.93-5.25 185.83-7.15L185.83-7.15Q185.88-7.2 186.01-7.45 186.13-7.7 186.33-7.7L186.33-7.7Q186.63-7.7 186.63-7.1L186.63-7.1 186.53-6.3Q186.18-4.65 185.11-3.05 184.03-1.45 182.71-0.48 181.38 0.5 180.33 0.5L180.33 0.5Q178.58 0.5 178.58-2.35L178.58-2.35Q178.58-3.45 178.83-4.6L178.83-4.6 179.68-8.95 179.63-8.95Q177.23-4.75 174.51-2.13 171.78 0.5 169.83 0.5L169.83 0.5ZM172.18-3.6Q173.58-3.6 175.41-5.78 177.23-7.95 178.81-11.1 180.38-14.25 180.98-16.75L180.98-16.75 181.78-19.95Q180.28-20.95 178.63-20.95L178.63-20.95Q176.48-20.95 174.71-18.48 172.93-16 171.93-12.48 170.93-8.95 170.93-6.1L170.93-6.1Q170.93-4.85 171.21-4.23 171.48-3.6 172.18-3.6L172.18-3.6ZM192.28 0.5Q191.33 0.5 190.9-0.43 190.48-1.35 190.48-2.75L190.48-2.75Q190.48-3.7 190.68-5L190.68-5 193.63-24.7Q194.68-31.5 196.18-35.2 197.68-38.9 199.78-40.55L199.78-40.55Q200.98-41.5 202.28-41.95 203.58-42.4 206.28-43.05L206.28-43.05Q207.53-43.3 207.88-43.45 208.23-43.6 208.33-43.6L208.33-43.6Q208.68-43.6 208.68-43.2L208.68-43.2Q208.68-43 208.45-42.6 208.23-42.2 207.73-41.75L207.73-41.75Q207.18-41.25 206.68-41.08 206.18-40.9 205.48-40.85L205.48-40.85Q202.58-40.55 201.28-39.05L201.28-39.05Q198.83-36.25 197.68-28.7L197.68-28.7 194.03-5.15Q193.98-4.8 193.98-4.3L193.98-4.3Q193.98-3.2 194.63-3.2L194.63-3.2Q196.13-3.2 198.13-7.65L198.13-7.65Q198.33-8.2 198.68-8.2L198.68-8.2Q199.03-8.2 199.03-7.5L199.03-7.5Q199.03-5.85 197.85-3.95 196.68-2.05 195.08-0.78 193.48 0.5 192.28 0.5L192.28 0.5Z" opacity="1" transform="matrix(1,0,0,1,0,0)" fill="#ffffff" class="wordmark-text-0" data-fill-palette-color="primary" id="text-0"></path></svg></g></svg></g><g transform="matrix(1,0,0,1,0,143.911599147061)"><svg viewBox="0 0 395.52 46.94676943404536" height="46.94676943404536" width="395.52"><g transform="matrix(1,0,0,1,0,0)"><svg width="395.52" viewBox="2 -38.43 443.4 52.64" height="46.94676943404536" data-palette-color="#ffffff"><path d="M2-1.27L2-1.27 2.25-35.64Q2.78-37.45 6.45-37.45L6.45-37.45Q9.81-37.45 12.65-36.55 15.48-35.64 17.41-33.52 19.34-31.4 19.34-28.42L19.34-28.42Q19.34-26.07 18.19-23.88 17.04-21.68 15.38-21.04L15.38-21.04Q18.51-20.61 20.41-17.29 22.31-13.96 22.31-9.42L22.31-9.42Q22.31-6.35 19.87-4.08 17.43-1.81 14.18-0.81 10.94 0.2 7.62 0.2L7.62 0.2Q3.56 0.2 2-1.27ZM6.01-18.36L6.01-18.36Q6.01-14.99 5.91-4.83L5.91-4.83Q7.37-3.17 9.67-3.17L9.67-3.17Q12.7-3.17 15.53-5.69 18.36-8.2 18.36-11.08L18.36-11.08Q18.36-14.65 15.97-16.65 13.57-18.65 9.81-18.65L9.81-18.65Q7.32-18.65 6.01-18.36ZM5.91-21.97L5.91-21.97 8.94-22.02Q12.06-22.02 13.75-23.85 15.43-25.68 15.43-28.22L15.43-28.22Q15.43-30.81 13.72-32.69 12.01-34.57 8.98-34.57L8.98-34.57Q7.62-34.57 5.76-33.98L5.76-33.98Q5.86-31.01 5.88-26.61 5.91-22.22 5.91-21.97ZM28.02-21.09L28.02-21.09 27.05-23.58Q28.32-24.85 30.27-25.61 32.22-26.37 34.13-26.37L34.13-26.37Q42.38-26.37 42.38-12.11L42.38-12.11Q42.38-10.16 42.16-6.35 41.94-2.54 41.94-0.63L41.94-0.63Q41.55 0.88 40.43 0.88L40.43 0.88Q39.55 0.88 38.82 0 38.08-0.88 38.08-1.95L38.08-1.95Q38.08-2.29 38.13-2.44L38.13-2.44Q35.1 0.49 31.69 0.49L31.69 0.49Q29.1 0.49 27.17-1.39 25.24-3.27 25.24-5.96L25.24-5.96Q25.24-10.5 28.78-14.16 32.32-17.82 36.81-17.82L36.81-17.82Q37.01-17.82 37.2-17.8 37.4-17.77 37.67-17.72 37.94-17.68 38.08-17.68L38.08-17.68Q37.69-23.39 33.54-23.39L33.54-23.39Q31.1-23.39 28.02-21.09ZM38.23-5.81L38.23-5.81Q38.33-9.23 38.33-10.99L38.33-10.99Q38.33-12.45 38.23-15.09L38.23-15.09 37.84-15.09Q34.37-15.04 31.52-12.5 28.66-9.96 28.66-6.35L28.66-6.35Q28.66-4.79 29.61-3.86 30.56-2.93 31.93-2.93L31.93-2.93Q34.08-2.93 38.23-5.81ZM64.55-37.3L63.91 1.27 61.23 0.73Q61.23-0.24 61.18-0.73L61.18-0.73Q58.59 0.93 55.71 0.93L55.71 0.93Q51.26 0.93 48.8-2.88 46.33-6.69 46.33-11.52L46.33-11.52Q46.33-14.01 46.7-16.21 47.07-18.41 47.97-20.73 48.87-23.05 50.8-24.41 52.73-25.78 55.46-25.78L55.46-25.78Q58.15-25.78 60.49-24.46L60.49-24.46Q60.88-29.64 60.88-34.91L60.88-34.91Q60.88-37.3 60.83-38.43L60.83-38.43Q63.18-37.99 64.55-37.3L64.55-37.3ZM60.79-3.96L60.79-3.96 60.64-19.68Q60.05-20.9 58.81-21.61 57.56-22.31 56.15-22.31L56.15-22.31Q54.24-22.31 52.9-21.09 51.56-19.87 51-17.85 50.43-15.82 50.21-14.06 50-12.3 50-10.35L50-10.35Q50-2.05 55.56-2.05L55.56-2.05Q57.42-2.05 58.95-2.56 60.49-3.08 60.79-3.96ZM97.5-23.54L97.5-23.54 97.01-21.58Q92.28-23.54 89.64-23.54L89.64-23.54Q87.29-23.54 86.34-22.83 85.39-22.12 85.39-19.82L85.39-19.82Q85.39-17.97 86.73-16.75 88.08-15.53 89.98-14.82 91.88-14.11 93.81-13.31 95.74-12.5 97.08-10.94 98.43-9.38 98.43-7.08L98.43-7.08Q98.43-3.96 96.13-1.61 93.84 0.73 90.18 0.78L90.18 0.78Q87.49 0.78 85.15-0.34 82.8-1.46 81.44-3.17L81.44-3.17 82.85-4.64Q83.44-4.39 84.58-3.86 85.73-3.32 86.22-3.15 86.71-2.98 87.66-2.78 88.61-2.59 89.69-2.59L89.69-2.59Q91.98-2.59 93.45-3.61 94.91-4.64 94.91-6.49L94.91-6.49Q94.91-7.71 94.23-8.57 93.54-9.42 92.42-9.96 91.3-10.5 89.96-10.99 88.61-11.47 87.27-12.08 85.93-12.7 84.8-13.55 83.68-14.4 83-15.87 82.31-17.33 82.31-19.34L82.31-19.34Q82.31-22.27 83.9-24.24 85.49-26.22 88.37-26.22L88.37-26.22Q89.49-26.22 90.91-25.88 92.32-25.54 93.15-25.24 93.98-24.95 95.62-24.29 97.26-23.63 97.5-23.54ZM101.4 11.77L101.99-25.68 104.72-25.2Q104.72-24.17 104.77-23.68L104.77-23.68Q107.46-25.39 110.19-25.39L110.19-25.39Q114.64-25.39 117.13-21.58 119.62-17.77 119.62-12.94L119.62-12.94Q119.62-10.5 119.25-8.28 118.88-6.05 117.96-3.74 117.03-1.42 115.1-0.02 113.17 1.37 110.44 1.37L110.44 1.37Q107.85 1.37 105.46 0L105.46 0Q105.65 8.54 105.8 12.7L105.8 12.7Q105.36 14.21 104.09 14.21L104.09 14.21Q103.21 14.21 102.4 13.5 101.6 12.79 101.4 11.77L101.4 11.77ZM105.16-20.51L105.16-20.51 105.31-4.74Q105.9-3.56 107.12-2.86 108.34-2.15 109.8-2.15L109.8-2.15Q111.71-2.15 113.05-3.37 114.39-4.59 114.95-6.62 115.51-8.64 115.73-10.4 115.95-12.16 115.95-14.11L115.95-14.11Q115.95-22.41 110.34-22.41L110.34-22.41Q108.53-22.41 106.99-21.9 105.46-21.39 105.16-20.51ZM143.25-4.74L143.25-4.74 143.74-2.59Q141.59-1.81 137.36-0.85 133.14 0.1 131.09 0.1L131.09 0.1Q128.99 0.1 127.43-1.29 125.86-2.69 125.08-4.86 124.3-7.03 123.94-9.16 123.57-11.28 123.57-13.33L123.57-13.33Q123.57-25.54 134.6-25.54L134.6-25.54Q137.24-25.54 139.24-23.85 141.24-22.17 141.24-19.48L141.24-19.48Q141.24-18.02 140.44-16.89 139.63-15.77 138.49-15.11 137.34-14.45 135.56-13.92 133.77-13.38 132.41-13.13 131.04-12.89 129.14-12.6 127.23-12.3 126.5-12.16L126.5-12.16Q126.55-10.74 126.67-9.67 126.79-8.59 127.16-7.35 127.52-6.1 128.13-5.3 128.74-4.49 129.82-3.96 130.89-3.42 132.36-3.42L132.36-3.42Q134.12-3.42 136.65-3.74 139.19-4.05 141.17-4.39 143.15-4.74 143.25-4.74ZM126.69-15.19L126.69-15.19Q133.33-17.09 137.58-19.19L137.58-19.19Q137.24-20.8 136.65-21.53 136.07-22.27 134.9-22.27L134.9-22.27Q131.92-22.27 129.5-20.21 127.08-18.16 126.69-15.19ZM145.69-2.34L146.76-33.5 149.01-33.01 150.08-1.42Q149.64 0.1 148.37 0.1L148.37 0.1Q147.49 0.1 146.69-0.61 145.88-1.32 145.69-2.34L145.69-2.34ZM154.08-2.34L155.16-33.5 157.4-33.01 158.48-1.42Q158.04 0.1 156.77 0.1L156.77 0.1Q155.89 0.1 155.08-0.61 154.28-1.32 154.08-2.34L154.08-2.34ZM163.55-25.1L163.55-25.1 165.8-24.61Q166.19-20.61 166.48-12.04 166.77-3.47 166.87-1.42L166.87-1.42Q166.43 0.1 165.16 0.1L165.16 0.1Q164.28 0.1 163.48-0.61 162.67-1.32 162.48-2.34L162.48-2.34Q162.58-4.35 162.87-12.77 163.16-21.19 163.55-25.1ZM164.24-33.84L164.24-33.84Q165.55-33.84 166.43-32.69 167.31-31.54 167.31-30.08L167.31-30.08Q167.31-29 166.8-28.34 166.29-27.69 165.41-27.69L165.41-27.69Q164.04-27.69 163.26-28.81 162.48-29.93 162.48-31.45L162.48-31.45Q162.48-32.52 162.94-33.18 163.41-33.84 164.24-33.84ZM174.63-19.53L174.63-19.53 174.83-0.2Q174.1 0.2 173.07 0.2L173.07 0.2Q172.29 0.2 171.31-0.05L171.31-0.05Q171.46-3.13 171.51-12.16 171.56-21.19 171.9-25.54L171.9-25.54 174.1-25.05 174.24-22.31Q176.83-25.05 180.2-25.05L180.2-25.05Q181.91-25.05 182.93-24.8 183.96-24.56 184.91-23.61 185.86-22.66 186.35-21.09 186.84-19.53 187.23-16.63 187.62-13.72 187.79-9.84 187.96-5.96 188.01-0.05L188.01-0.05Q187.72 0.05 186.89 0.05L186.89 0.05Q185.13 0.05 184.15-0.39L184.15-0.39Q183.96-1.17 183.96-2.98L183.96-2.98Q183.96-3.91 184.03-6.47 184.11-9.03 184.11-10.45L184.11-10.45Q184.11-12.79 183.93-14.55 183.76-16.31 183.3-18.02 182.84-19.73 181.88-20.65 180.93-21.58 179.52-21.58L179.52-21.58Q177.9-21.58 177-21.34 176.1-21.09 175.73-20.75 175.37-20.41 174.63-19.53ZM206.86-25.2L206.86-25.2 209.05-25.68Q209.05-24.22 209.1-23.39L209.1-23.39Q209.4-12.7 209.4-9.47L209.4-9.47Q209.4-8.35 209.45-5.96 209.49-3.56 209.49-2.34L209.49-2.34Q209.49 0.34 209.32 2.29 209.15 4.25 208.57 6.37 207.98 8.5 206.98 9.84 205.98 11.18 204.15 12.06 202.32 12.94 199.83 12.94L199.83 12.94Q197.68 12.94 192.26 12.3L192.26 12.3Q192.21 11.77 192.09 11.13 191.96 10.5 191.96 10.16L191.96 10.16Q191.96 9.42 192.11 8.98L192.11 8.98Q192.5 9.03 195.16 9.38 197.82 9.72 199.09 9.72L199.09 9.72Q202.46 9.72 204.27 7.67 206.08 5.62 206.12 0L206.12 0Q203.73 1.37 201.1 1.37L201.1 1.37Q198.9 1.37 197.24 0.46 195.58-0.44 194.6-1.83 193.62-3.22 193.01-5.2 192.4-7.18 192.18-9.03 191.96-10.89 191.96-12.99L191.96-12.99Q191.96-18.26 194.28-21.83 196.6-25.39 201.34-25.39L201.34-25.39Q204.12-25.39 206.81-23.68L206.81-23.68Q206.86-24.17 206.86-25.2ZM206.27-4.74L206.27-4.74 206.42-20.51Q206.12-21.39 204.59-21.9 203.05-22.41 201.19-22.41L201.19-22.41Q198.56-22.41 197.09-20 195.63-17.58 195.63-14.11L195.63-14.11Q195.63-12.3 195.82-10.57 196.02-8.84 196.6-6.76 197.19-4.69 198.51-3.42 199.83-2.15 201.78-2.15L201.78-2.15Q203.24-2.15 204.46-2.86 205.69-3.56 206.27-4.74ZM212.57 5.86L212.57 5.86 212.47 4.3Q215.99 3.08 215.99 0.98L215.99 0.98Q215.99 0.63 215.79-0.15L215.79-0.15Q215.11-0.05 214.86-0.05L214.86-0.05Q213.93-0.05 213.4-1.29 212.86-2.54 212.86-3.71L212.86-3.71Q212.86-4.79 213.3-5.44 213.74-6.1 214.57-6.1L214.57-6.1Q216.43-6.1 217.55-3.96 218.67-1.81 218.67 0.34L218.67 0.34Q218.67 2.64 217.16 4.17 215.64 5.71 212.57 5.86ZM250.5-25.2L250.5-25.2 252.7-25.68Q252.7-24.22 252.75-23.39L252.75-23.39Q253.04-12.7 253.04-9.47L253.04-9.47Q253.04-8.35 253.09-5.96 253.14-3.56 253.14-2.34L253.14-2.34Q253.14 0.34 252.97 2.29 252.8 4.25 252.21 6.37 251.63 8.5 250.62 9.84 249.62 11.18 247.79 12.06 245.96 12.94 243.47 12.94L243.47 12.94Q241.32 12.94 235.9 12.3L235.9 12.3Q235.85 11.77 235.73 11.13 235.61 10.5 235.61 10.16L235.61 10.16Q235.61 9.42 235.76 8.98L235.76 8.98Q236.15 9.03 238.81 9.38 241.47 9.72 242.74 9.72L242.74 9.72Q246.11 9.72 247.91 7.67 249.72 5.62 249.77 0L249.77 0Q247.38 1.37 244.74 1.37L244.74 1.37Q242.54 1.37 240.88 0.46 239.22-0.44 238.25-1.83 237.27-3.22 236.66-5.2 236.05-7.18 235.83-9.03 235.61-10.89 235.61-12.99L235.61-12.99Q235.61-18.26 237.93-21.83 240.25-25.39 244.98-25.39L244.98-25.39Q247.77-25.39 250.45-23.68L250.45-23.68Q250.5-24.17 250.5-25.2ZM249.92-4.74L249.92-4.74 250.06-20.51Q249.77-21.39 248.23-21.9 246.69-22.41 244.84-22.41L244.84-22.41Q242.2-22.41 240.74-20 239.27-17.58 239.27-14.11L239.27-14.11Q239.27-12.3 239.47-10.57 239.66-8.84 240.25-6.76 240.83-4.69 242.15-3.42 243.47-2.15 245.42-2.15L245.42-2.15Q246.89-2.15 248.11-2.86 249.33-3.56 249.92-4.74ZM257.14-10.4L257.14-10.4Q257.14-12.35 257.56-14.75 257.97-17.14 258.8-19.78 259.63-22.41 261.29-24.17 262.95-25.93 265.15-25.93L265.15-25.93Q269.84-25.93 272.67-21.7 275.5-17.48 275.5-12.3L275.5-12.3Q275.5-10.11 275.04-7.93 274.57-5.76 273.6-3.66 272.62-1.56 270.79-0.17 268.96 1.22 266.52 1.42L266.52 1.42Q262.02 0.83 259.58-2.42 257.14-5.66 257.14-10.4ZM265.44-23.39L265.44-23.39Q263.73-23.19 262.56-20.26 261.39-17.33 261.05-14.58 260.7-11.82 260.7-9.72L260.7-9.72Q260.7-6.98 262.39-4.66 264.07-2.34 266.17-2.34L266.17-2.34Q267.69-2.34 268.91-3.52 270.13-4.69 270.84-6.42 271.54-8.15 271.91-9.91 272.28-11.67 272.28-13.04L272.28-13.04Q272.28-17.04 270.47-20.02 268.66-23 265.44-23.39ZM279.45-10.4L279.45-10.4Q279.45-12.35 279.87-14.75 280.28-17.14 281.11-19.78 281.94-22.41 283.6-24.17 285.26-25.93 287.46-25.93L287.46-25.93Q292.15-25.93 294.98-21.7 297.81-17.48 297.81-12.3L297.81-12.3Q297.81-10.11 297.35-7.93 296.88-5.76 295.91-3.66 294.93-1.56 293.1-0.17 291.27 1.22 288.83 1.42L288.83 1.42Q284.34 0.83 281.89-2.42 279.45-5.66 279.45-10.4ZM287.75-23.39L287.75-23.39Q286.04-23.19 284.87-20.26 283.7-17.33 283.36-14.58 283.02-11.82 283.02-9.72L283.02-9.72Q283.02-6.98 284.7-4.66 286.39-2.34 288.49-2.34L288.49-2.34Q290-2.34 291.22-3.52 292.44-4.69 293.15-6.42 293.86-8.15 294.22-9.91 294.59-11.67 294.59-13.04L294.59-13.04Q294.59-17.04 292.78-20.02 290.98-23 287.75-23.39ZM319.98-37.3L319.34 1.27 316.66 0.73Q316.66-0.24 316.61-0.73L316.61-0.73Q314.02 0.93 311.14 0.93L311.14 0.93Q306.7 0.93 304.23-2.88 301.76-6.69 301.76-11.52L301.76-11.52Q301.76-14.01 302.13-16.21 302.5-18.41 303.4-20.73 304.3-23.05 306.23-24.41 308.16-25.78 310.9-25.78L310.9-25.78Q313.58-25.78 315.92-24.46L315.92-24.46Q316.31-29.64 316.31-34.91L316.31-34.91Q316.31-37.3 316.27-38.43L316.27-38.43Q318.61-37.99 319.98-37.3L319.98-37.3ZM316.22-3.96L316.22-3.96 316.07-19.68Q315.48-20.9 314.24-21.61 312.99-22.31 311.58-22.31L311.58-22.31Q309.67-22.31 308.33-21.09 306.99-19.87 306.43-17.85 305.87-15.82 305.65-14.06 305.43-12.3 305.43-10.35L305.43-10.35Q305.43-2.05 310.99-2.05L310.99-2.05Q312.85-2.05 314.39-2.56 315.92-3.08 316.22-3.96ZM339.65-21.09L339.65-21.09 338.67-23.58Q339.94-24.85 341.9-25.61 343.85-26.37 345.75-26.37L345.75-26.37Q354.01-26.37 354.01-12.11L354.01-12.11Q354.01-10.16 353.79-6.35 353.57-2.54 353.57-0.63L353.57-0.63Q353.18 0.88 352.05 0.88L352.05 0.88Q351.17 0.88 350.44 0 349.71-0.88 349.71-1.95L349.71-1.95Q349.71-2.29 349.76-2.44L349.76-2.44Q346.73 0.49 343.31 0.49L343.31 0.49Q340.72 0.49 338.8-1.39 336.87-3.27 336.87-5.96L336.87-5.96Q336.87-10.5 340.41-14.16 343.95-17.82 348.44-17.82L348.44-17.82Q348.63-17.82 348.83-17.8 349.02-17.77 349.29-17.72 349.56-17.68 349.71-17.68L349.71-17.68Q349.32-23.39 345.17-23.39L345.17-23.39Q342.73-23.39 339.65-21.09ZM349.85-5.81L349.85-5.81Q349.95-9.23 349.95-10.99L349.95-10.99Q349.95-12.45 349.85-15.09L349.85-15.09 349.46-15.09Q346-15.04 343.14-12.5 340.28-9.96 340.28-6.35L340.28-6.35Q340.28-4.79 341.24-3.86 342.19-2.93 343.56-2.93L343.56-2.93Q345.7-2.93 349.85-5.81ZM376.17-37.3L375.54 1.27 372.85 0.73Q372.85-0.24 372.8-0.73L372.8-0.73Q370.21 0.93 367.33 0.93L367.33 0.93Q362.89 0.93 360.42-2.88 357.96-6.69 357.96-11.52L357.96-11.52Q357.96-14.01 358.32-16.21 358.69-18.41 359.59-20.73 360.5-23.05 362.43-24.41 364.35-25.78 367.09-25.78L367.09-25.78Q369.77-25.78 372.12-24.46L372.12-24.46Q372.51-29.64 372.51-34.91L372.51-34.91Q372.51-37.3 372.46-38.43L372.46-38.43Q374.8-37.99 376.17-37.3L376.17-37.3ZM372.41-3.96L372.41-3.96 372.26-19.68Q371.68-20.9 370.43-21.61 369.19-22.31 367.77-22.31L367.77-22.31Q365.87-22.31 364.53-21.09 363.18-19.87 362.62-17.85 362.06-15.82 361.84-14.06 361.62-12.3 361.62-10.35L361.62-10.35Q361.62-2.05 367.19-2.05L367.19-2.05Q369.04-2.05 370.58-2.56 372.12-3.08 372.41-3.96ZM393.4-25.1L393.4-25.1 396.68-24.66Q395.75-20.8 393.75-12.92 391.74-5.03 390.62-0.1L390.62-0.1Q388.72 0.24 387.3 0.24L387.3 0.24Q386.13 0.24 385.1 0.05L385.1 0.05Q384.37-2.49 382.78-7.98 381.2-13.48 380.1-17.53 379-21.58 378.12-25.29L378.12-25.29 381.34-25.05 387.69-4.74Q388.47-7.08 389.35-10.01 390.23-12.94 390.77-15.01 391.3-17.09 392.18-20.43 393.06-23.78 393.4-25.1ZM399.7-25.1L399.7-25.1 401.95-24.61Q402.34-20.61 402.63-12.04 402.92-3.47 403.02-1.42L403.02-1.42Q402.58 0.1 401.31 0.1L401.31 0.1Q400.43 0.1 399.63-0.61 398.82-1.32 398.63-2.34L398.63-2.34Q398.72-4.35 399.02-12.77 399.31-21.19 399.7-25.1ZM400.38-33.84L400.38-33.84Q401.7-33.84 402.58-32.69 403.46-31.54 403.46-30.08L403.46-30.08Q403.46-29 402.95-28.34 402.44-27.69 401.56-27.69L401.56-27.69Q400.19-27.69 399.41-28.81 398.63-29.93 398.63-31.45L398.63-31.45Q398.63-32.52 399.09-33.18 399.55-33.84 400.38-33.84ZM423.92-24.22L423.92-24.22 423.67-22.12Q421.62-22.41 420.16-22.41L420.16-22.41Q416.79-22.41 414.59-20.39 412.39-18.36 411.59-15.6 410.78-12.84 410.78-9.47L410.78-9.47Q410.78-7.91 410.98-6.69 411.17-5.47 411.69-4.3 412.2-3.13 413.3-2.47 414.4-1.81 416.01-1.81L416.01-1.81Q418.16-1.81 421.48-2.64L421.48-2.64Q422.5-3.03 423.09-3.03L423.09-3.03Q424.26-3.03 424.5-0.29L424.5-0.29Q420.21 1.07 416.54 1.07L416.54 1.07Q411.22 1.07 409.34-1.54 407.46-4.15 407.46-10.01L407.46-10.01Q407.46-13.43 407.93-15.99 408.39-18.55 409.56-20.78 410.73-23 412.96-24.17 415.18-25.34 418.4-25.34L418.4-25.34Q422.01-25.34 423.92-24.22ZM444.91-4.74L444.91-4.74 445.4-2.59Q443.25-1.81 439.03-0.85 434.8 0.1 432.75 0.1L432.75 0.1Q430.65 0.1 429.09-1.29 427.53-2.69 426.75-4.86 425.97-7.03 425.6-9.16 425.23-11.28 425.23-13.33L425.23-13.33Q425.23-25.54 436.27-25.54L436.27-25.54Q438.9-25.54 440.91-23.85 442.91-22.17 442.91-19.48L442.91-19.48Q442.91-18.02 442.1-16.89 441.3-15.77 440.15-15.11 439-14.45 437.22-13.92 435.44-13.38 434.07-13.13 432.7-12.89 430.8-12.6 428.9-12.3 428.16-12.16L428.16-12.16Q428.21-10.74 428.33-9.67 428.46-8.59 428.82-7.35 429.19-6.1 429.8-5.3 430.41-4.49 431.48-3.96 432.56-3.42 434.02-3.42L434.02-3.42Q435.78-3.42 438.32-3.74 440.86-4.05 442.84-4.39 444.81-4.74 444.91-4.74ZM428.36-15.19L428.36-15.19Q435-17.09 439.25-19.19L439.25-19.19Q438.9-20.8 438.32-21.53 437.73-22.27 436.56-22.27L436.56-22.27Q433.58-22.27 431.17-20.21 428.75-18.16 428.36-15.19Z" opacity="1" transform="matrix(1,0,0,1,0,0)" fill="#ffffff" class="slogan-text-1" data-fill-palette-color="secondary" id="text-1"></path></svg></g></svg></g></svg></g></svg></g><g transform="matrix(1,0,0,1,75.54432,0)"><svg viewBox="0 0 244.43135999999998 244.43135999999993" height="244.43135999999993" width="244.43135999999998"><g><svg></svg></g><g id="icon-0"><svg viewBox="0 0 244.43135999999998 244.43135999999993" height="244.43135999999993" width="244.43135999999998"><g><path transform="scale(2.44431,2.44431)" d="M30 100c-16.569 0-30-13.431-30-30v-40c0-16.569 13.431-30 30-30h40c16.569 0 30 13.431 30 30v40c0 16.569-13.431 30-30 30z" fill="#ffffff" fill-rule="nonzero" stroke="none" stroke-width="1" stroke-linecap="butt" stroke-linejoin="miter" stroke-miterlimit="10" stroke-dasharray="" stroke-dashoffset="0" font-family="none" font-weight="none" font-size="none" text-anchor="none" style="mix-blend-mode: normal" data-fill-palette-color="accent"></path></g><g transform="matrix(1,0,0,1,48.886272000000005,55.55258181818179)"><svg viewBox="0 0 146.65881599999997 133.32619636363634" height="133.32619636363634" width="146.65881599999997"><g><svg xmlns="http://www.w3.org/2000/svg" viewBox="2 4 44 40" x="0" y="0" height="133.32619636363634" width="146.65881599999997" class="icon-cg-0" data-fill-palette-color="quaternary" id="cg-0"><g data-name="Credit Card-Payment" fill="#1ebbd7" data-fill-palette-color="quaternary"><path d="M4 25V15H36v3h2V7a3 3 0 0 0-3-3H5A3 3 0 0 0 2 7V25a3 3 0 0 0 3 3H8V26H5A1 1 0 0 1 4 25ZM4 13V11H36v2ZM5 6H35a1 1 0 0 1 1 1V9H4V7A1 1 0 0 1 5 6Z" fill="#1ebbd7" data-fill-palette-color="quaternary"></path><path d="M43 20H13a3 3 0 0 0-3 3V41a3 3 0 0 0 3 3H43a3 3 0 0 0 3-3V23A3 3 0 0 0 43 20Zm1 21a1 1 0 0 1-1 1H13a1 1 0 0 1-1-1V23a1 1 0 0 1 1-1H43a1 1 0 0 1 1 1Z" fill="#1ebbd7" data-fill-palette-color="quaternary"></path><path d="M38 24a4 4 0 1 0 4 4A4 4 0 0 0 38 24Zm0 6a2 2 0 1 1 2-2A2 2 0 0 1 38 30Z" fill="#1ebbd7" data-fill-palette-color="quaternary"></path><path d="M40 34H16a1 1 0 0 0-1 1v4a1 1 0 0 0 1 1H40a1 1 0 0 0 1-1V35A1 1 0 0 0 40 34Zm-1 4H17V36H39Z" fill="#1ebbd7" data-fill-palette-color="quaternary"></path><path d="M17 31h6a1 1 0 0 0 1-1V26a1 1 0 0 0-1-1H17a1 1 0 0 0-1 1v4A1 1 0 0 0 17 31Zm1-4h4v2H18Z" fill="#1ebbd7" data-fill-palette-color="quaternary"></path></g></svg></g></svg></g></svg></g></svg></g><g></g></svg></g><defs></defs></svg><rect width="211.27440217998574" height="247.2" fill="none" stroke="none" visibility="hidden"></rect></g></svg></g></svg>